<mxfile host="app.diagrams.net" modified="2024-07-10T08:00:35.798Z" agent="Mozilla/5.0 (Windows NT 10.0; Win64; x64) AppleWebKit/537.36 (KHTML, like Gecko) Chrome/126.0.0.0 Safari/537.36 Edg/126.0.0.0" etag="Nqvj0OPB5PET6Mfrfmsf" version="24.6.4" type="github">
  <diagram name="第 1 页" id="A56RjGtucgwu0x3YHkNj">
    <mxGraphModel dx="1674" dy="835" grid="1" gridSize="10" guides="1" tooltips="1" connect="1" arrows="1" fold="1" page="1" pageScale="1" pageWidth="827" pageHeight="1169" math="0" shadow="0">
      <root>
        <mxCell id="0" />
        <mxCell id="1" parent="0" />
        <mxCell id="GjWekeVXgLKtuXJN4WWe-17" value="" style="group" vertex="1" connectable="0" parent="1">
          <mxGeometry x="20" width="420" height="630" as="geometry" />
        </mxCell>
        <mxCell id="GjWekeVXgLKtuXJN4WWe-15" value="" style="rounded=1;whiteSpace=wrap;html=1;" vertex="1" parent="GjWekeVXgLKtuXJN4WWe-17">
          <mxGeometry width="420" height="630" as="geometry" />
        </mxCell>
        <mxCell id="GjWekeVXgLKtuXJN4WWe-5" style="edgeStyle=orthogonalEdgeStyle;rounded=0;orthogonalLoop=1;jettySize=auto;html=1;exitX=1;exitY=0.5;exitDx=0;exitDy=0;entryX=0;entryY=0.5;entryDx=0;entryDy=0;" edge="1" parent="GjWekeVXgLKtuXJN4WWe-17" source="GjWekeVXgLKtuXJN4WWe-1" target="GjWekeVXgLKtuXJN4WWe-4">
          <mxGeometry relative="1" as="geometry" />
        </mxCell>
        <mxCell id="GjWekeVXgLKtuXJN4WWe-12" style="edgeStyle=orthogonalEdgeStyle;rounded=0;orthogonalLoop=1;jettySize=auto;html=1;exitX=1;exitY=0.5;exitDx=0;exitDy=0;entryX=0;entryY=0.5;entryDx=0;entryDy=0;" edge="1" parent="GjWekeVXgLKtuXJN4WWe-17" source="GjWekeVXgLKtuXJN4WWe-1" target="GjWekeVXgLKtuXJN4WWe-6">
          <mxGeometry relative="1" as="geometry" />
        </mxCell>
        <mxCell id="GjWekeVXgLKtuXJN4WWe-13" style="edgeStyle=orthogonalEdgeStyle;rounded=0;orthogonalLoop=1;jettySize=auto;html=1;exitX=1;exitY=0.5;exitDx=0;exitDy=0;entryX=0;entryY=0.75;entryDx=0;entryDy=0;" edge="1" parent="GjWekeVXgLKtuXJN4WWe-17" source="GjWekeVXgLKtuXJN4WWe-1" target="GjWekeVXgLKtuXJN4WWe-8">
          <mxGeometry relative="1" as="geometry" />
        </mxCell>
        <mxCell id="GjWekeVXgLKtuXJN4WWe-14" style="edgeStyle=orthogonalEdgeStyle;rounded=0;orthogonalLoop=1;jettySize=auto;html=1;exitX=1;exitY=0.5;exitDx=0;exitDy=0;entryX=0;entryY=0.75;entryDx=0;entryDy=0;" edge="1" parent="GjWekeVXgLKtuXJN4WWe-17" source="GjWekeVXgLKtuXJN4WWe-1" target="GjWekeVXgLKtuXJN4WWe-10">
          <mxGeometry relative="1" as="geometry" />
        </mxCell>
        <mxCell id="GjWekeVXgLKtuXJN4WWe-1" value="random" style="rounded=1;whiteSpace=wrap;html=1;" vertex="1" parent="GjWekeVXgLKtuXJN4WWe-17">
          <mxGeometry x="20" y="80" width="120" height="60" as="geometry" />
        </mxCell>
        <mxCell id="GjWekeVXgLKtuXJN4WWe-7" value="" style="edgeStyle=orthogonalEdgeStyle;rounded=0;orthogonalLoop=1;jettySize=auto;html=1;" edge="1" parent="GjWekeVXgLKtuXJN4WWe-17" source="GjWekeVXgLKtuXJN4WWe-4" target="GjWekeVXgLKtuXJN4WWe-6">
          <mxGeometry relative="1" as="geometry" />
        </mxCell>
        <mxCell id="GjWekeVXgLKtuXJN4WWe-4" value="0" style="rounded=1;whiteSpace=wrap;html=1;" vertex="1" parent="GjWekeVXgLKtuXJN4WWe-17">
          <mxGeometry x="254" y="80" width="120" height="60" as="geometry" />
        </mxCell>
        <mxCell id="GjWekeVXgLKtuXJN4WWe-9" value="" style="edgeStyle=orthogonalEdgeStyle;rounded=0;orthogonalLoop=1;jettySize=auto;html=1;" edge="1" parent="GjWekeVXgLKtuXJN4WWe-17" source="GjWekeVXgLKtuXJN4WWe-6" target="GjWekeVXgLKtuXJN4WWe-8">
          <mxGeometry relative="1" as="geometry" />
        </mxCell>
        <mxCell id="GjWekeVXgLKtuXJN4WWe-6" value="3000" style="whiteSpace=wrap;html=1;rounded=1;" vertex="1" parent="GjWekeVXgLKtuXJN4WWe-17">
          <mxGeometry x="254" y="220" width="120" height="60" as="geometry" />
        </mxCell>
        <mxCell id="GjWekeVXgLKtuXJN4WWe-11" value="" style="edgeStyle=orthogonalEdgeStyle;rounded=0;orthogonalLoop=1;jettySize=auto;html=1;" edge="1" parent="GjWekeVXgLKtuXJN4WWe-17" source="GjWekeVXgLKtuXJN4WWe-8" target="GjWekeVXgLKtuXJN4WWe-10">
          <mxGeometry relative="1" as="geometry" />
        </mxCell>
        <mxCell id="GjWekeVXgLKtuXJN4WWe-8" value="5000" style="whiteSpace=wrap;html=1;rounded=1;" vertex="1" parent="GjWekeVXgLKtuXJN4WWe-17">
          <mxGeometry x="254" y="360" width="120" height="60" as="geometry" />
        </mxCell>
        <mxCell id="GjWekeVXgLKtuXJN4WWe-10" value="7000" style="whiteSpace=wrap;html=1;rounded=1;" vertex="1" parent="GjWekeVXgLKtuXJN4WWe-17">
          <mxGeometry x="254" y="500" width="120" height="60" as="geometry" />
        </mxCell>
        <mxCell id="GjWekeVXgLKtuXJN4WWe-16" value="使用for循环查找抽奖的概率" style="text;html=1;align=center;verticalAlign=middle;whiteSpace=wrap;rounded=0;" vertex="1" parent="GjWekeVXgLKtuXJN4WWe-17">
          <mxGeometry x="120" y="20" width="190" height="30" as="geometry" />
        </mxCell>
      </root>
    </mxGraphModel>
  </diagram>
</mxfile>
